<svg width="103" height="17" viewBox="0 0 103 17" fill="none" xmlns="http://www.w3.org/2000/svg">
<path d="M6.07314 0.649426C8.56914 0.649426 10.5531 1.91343 11.2731 4.15343H8.69714C8.18514 3.20942 7.25714 2.71343 6.07314 2.71343C4.07314 2.71343 2.68114 4.13743 2.68114 6.36143C2.68114 8.63343 4.08914 10.0414 6.16914 10.0414C7.89714 10.0414 9.00114 9.04943 9.33714 7.46543H5.49714V5.75343H11.5451V7.70543C11.0971 9.97743 9.06514 12.0574 6.08914 12.0574C2.84114 12.0574 0.377139 9.70543 0.377139 6.36143C0.377139 3.01743 2.84114 0.649426 6.07314 0.649426ZM12.6264 7.49743C12.6264 4.72943 14.4184 2.95343 16.6744 2.95343C18.0984 2.95343 19.0744 3.62543 19.6024 4.36143V3.09743H21.8584V11.9614H19.6024V10.6654C19.0744 11.4334 18.0664 12.1054 16.6584 12.1054C14.4184 12.1054 12.6264 10.2654 12.6264 7.49743ZM19.6024 7.52943C19.6024 5.84943 18.4824 4.92143 17.2504 4.92143C16.0504 4.92143 14.9144 5.81743 14.9144 7.49743C14.9144 9.17743 16.0504 10.1374 17.2504 10.1374C18.4824 10.1374 19.6024 9.20943 19.6024 7.52943ZM23.4701 7.49743C23.4701 4.72943 25.2621 2.95343 27.5341 2.95343C28.7021 2.95343 29.8221 3.49743 30.4301 4.32943V0.121426H32.7021V11.9614H30.4301V10.6494C29.9021 11.4654 28.9101 12.1054 27.5181 12.1054C25.2621 12.1054 23.4701 10.2654 23.4701 7.49743ZM30.4461 7.52943C30.4461 5.84943 29.3261 4.92143 28.0941 4.92143C26.8941 4.92143 25.7581 5.81743 25.7581 7.49743C25.7581 9.17743 26.8941 10.1374 28.0941 10.1374C29.3261 10.1374 30.4461 9.20943 30.4461 7.52943ZM34.3139 7.49743C34.3139 4.72943 36.1059 2.95343 38.3619 2.95343C39.7539 2.95343 40.7619 3.59343 41.2899 4.36143V3.09743H43.5459V12.0254C43.5459 14.4254 42.0739 16.3294 39.1619 16.3294C36.6659 16.3294 34.9219 15.0814 34.6979 13.0494H36.9219C37.1459 13.8494 37.9779 14.3774 39.0979 14.3774C40.3299 14.3774 41.2899 13.6734 41.2899 12.0254V10.6494C40.7619 11.4174 39.7539 12.1054 38.3619 12.1054C36.1059 12.1054 34.3139 10.2654 34.3139 7.49743ZM41.2899 7.52943C41.2899 5.84943 40.1699 4.92143 38.9379 4.92143C37.7379 4.92143 36.6019 5.81743 36.6019 7.49743C36.6019 9.17743 37.7379 10.1374 38.9379 10.1374C40.1699 10.1374 41.2899 9.20943 41.2899 7.52943ZM49.5416 4.79343C48.4696 4.79343 47.6216 5.48143 47.4456 6.69743H51.6536C51.6216 5.52943 50.6936 4.79343 49.5416 4.79343ZM53.7496 9.17743C53.2696 10.8094 51.7976 12.1054 49.6056 12.1054C47.0296 12.1054 45.1576 10.3134 45.1576 7.52943C45.1576 4.72943 46.9816 2.95343 49.6056 2.95343C52.1656 2.95343 53.9736 4.69743 53.9736 7.33743C53.9736 7.62543 53.9576 7.91343 53.9096 8.20143H47.4296C47.5416 9.51343 48.4376 10.2494 49.5576 10.2494C50.5176 10.2494 51.0456 9.76943 51.3336 9.17743H53.7496ZM55.9606 9.20943V4.93743H54.9046V3.09743H55.9606V0.905425H58.2166V3.09743H60.2006V4.93743H58.2166V9.22543C58.2166 9.81743 58.4566 10.0734 59.1606 10.0734H60.2006V11.9614H58.7926C57.0966 11.9614 55.9606 11.2414 55.9606 9.20943Z" fill="black"/>
<path d="M69.6198 8.72943C69.6198 10.4894 68.2118 12.0734 65.6678 12.0734C63.3478 12.0734 61.5558 10.8574 61.5238 8.74543H63.9238C63.9878 9.64143 64.5798 10.2334 65.6198 10.2334C66.6758 10.2334 67.2998 9.67343 67.2998 8.87343C67.2998 6.45743 61.5398 7.91343 61.5558 3.86543C61.5558 1.84943 63.1878 0.633426 65.4918 0.633426C67.7798 0.633426 69.3478 1.80142 69.4918 3.81743H67.0278C66.9798 3.08143 66.3878 2.50543 65.4278 2.48943C64.5478 2.45743 63.8918 2.88943 63.8918 3.80142C63.8918 6.04143 69.6198 4.79343 69.6198 8.72943ZM71.9138 9.20943V4.93743H70.8578V3.09743H71.9138V0.905425H74.1698V3.09743H76.1538V4.93743H74.1698V9.22543C74.1698 9.81743 74.4098 10.0734 75.1138 10.0734H76.1538V11.9614H74.7458C73.0498 11.9614 71.9138 11.2414 71.9138 9.20943ZM86.3249 7.52943C86.3249 10.3134 84.2769 12.1054 81.7009 12.1054C79.1409 12.1054 77.2049 10.3134 77.2049 7.52943C77.2049 4.72943 79.2049 2.95343 81.7649 2.95343C84.3249 2.95343 86.3249 4.72943 86.3249 7.52943ZM79.4769 7.52943C79.4769 9.28943 80.5009 10.1534 81.7009 10.1534C82.8849 10.1534 84.0209 9.28943 84.0209 7.52943C84.0209 5.75343 82.9169 4.90543 81.7329 4.90543C80.5489 4.90543 79.4769 5.75343 79.4769 7.52943ZM90.208 7.54543V11.9614H87.968V3.09743H90.208V4.47343C90.768 3.56143 91.696 2.96943 92.928 2.96943V5.32143H92.336C91.008 5.32143 90.208 5.83343 90.208 7.54543ZM98.2448 4.79343C97.1728 4.79343 96.3248 5.48143 96.1488 6.69743H100.357C100.325 5.52943 99.3968 4.79343 98.2448 4.79343ZM102.453 9.17743C101.973 10.8094 100.501 12.1054 98.3088 12.1054C95.7328 12.1054 93.8608 10.3134 93.8608 7.52943C93.8608 4.72943 95.6848 2.95343 98.3088 2.95343C100.869 2.95343 102.677 4.69743 102.677 7.33743C102.677 7.62543 102.661 7.91343 102.613 8.20143H96.1328C96.2448 9.51343 97.1408 10.2494 98.2608 10.2494C99.2208 10.2494 99.7488 9.76943 100.037 9.17743H102.453Z" fill="#5356FF"/>
</svg>
