<svg width="53" height="52" viewBox="0 0 53 52" fill="none" xmlns="http://www.w3.org/2000/svg">
<g id="Group 11">
<rect id="Rectangle 69" x="0.195801" width="52" height="52" rx="15" fill="#DFF5FF"/>
<path id="Vector" d="M26.1418 20.3308C23.0364 20.3308 20.5315 22.8357 20.5315 25.9412C20.5315 29.0466 23.0364 31.5515 26.1418 31.5515C29.2473 31.5515 31.7522 29.0466 31.7522 25.9412C31.7522 22.8357 29.2473 20.3308 26.1418 20.3308ZM26.1418 29.5886C24.135 29.5886 22.4944 27.9529 22.4944 25.9412C22.4944 23.9294 24.1301 22.2937 26.1418 22.2937C28.1536 22.2937 29.7893 23.9294 29.7893 25.9412C29.7893 27.9529 28.1487 29.5886 26.1418 29.5886ZM33.2903 20.1013C33.2903 20.8289 32.7043 21.4099 31.9817 21.4099C31.2542 21.4099 30.6731 20.824 30.6731 20.1013C30.6731 19.3787 31.259 18.7927 31.9817 18.7927C32.7043 18.7927 33.2903 19.3787 33.2903 20.1013ZM37.0061 21.4294C36.9231 19.6765 36.5227 18.1238 35.2385 16.8445C33.9592 15.5652 32.4065 15.1648 30.6536 15.0769C28.8469 14.9744 23.4319 14.9744 21.6252 15.0769C19.8772 15.1599 18.3245 15.5603 17.0403 16.8396C15.7561 18.1189 15.3606 19.6716 15.2727 21.4246C15.1702 23.2312 15.1702 28.6462 15.2727 30.4529C15.3557 32.2058 15.7561 33.7585 17.0403 35.0378C18.3245 36.3171 19.8723 36.7175 21.6252 36.8054C23.4319 36.908 28.8469 36.908 30.6536 36.8054C32.4065 36.7224 33.9592 36.322 35.2385 35.0378C36.5178 33.7585 36.9182 32.2058 37.0061 30.4529C37.1086 28.6462 37.1086 23.2361 37.0061 21.4294ZM34.6721 32.3914C34.2913 33.3484 33.554 34.0857 32.592 34.4714C31.1516 35.0427 27.7336 34.9109 26.1418 34.9109C24.55 34.9109 21.1272 35.0378 19.6917 34.4714C18.7346 34.0906 17.9973 33.3533 17.6116 32.3914C17.0403 30.9509 17.1721 27.533 17.1721 25.9412C17.1721 24.3494 17.0452 20.9265 17.6116 19.491C17.9924 18.5339 18.7297 17.7966 19.6917 17.4109C21.1321 16.8396 24.55 16.9714 26.1418 16.9714C27.7336 16.9714 31.1565 16.8445 32.592 17.4109C33.5491 17.7917 34.2864 18.5291 34.6721 19.491C35.2434 20.9314 35.1116 24.3494 35.1116 25.9412C35.1116 27.533 35.2434 30.9558 34.6721 32.3914Z" fill="black"/>
</g>
</svg>
