<svg width="53" height="52" viewBox="0 0 53 52" fill="none" xmlns="http://www.w3.org/2000/svg">
<g id="Group 12">
<rect id="Rectangle 71" x="0.195801" width="52" height="52" rx="15" fill="#DFF5FF"/>
<path id="Vector" d="M38.626 21.0603C38.6418 21.2823 38.6418 21.5044 38.6418 21.7265C38.6418 28.5 33.4864 36.3045 24.0638 36.3045C21.1609 36.3045 18.4642 35.4638 16.1958 34.0044C16.6083 34.052 17.0048 34.0679 17.4331 34.0679C19.8284 34.0679 22.0333 33.2589 23.7941 31.8788C21.5416 31.8312 19.6539 30.356 19.0035 28.3255C19.3208 28.373 19.638 28.4048 19.9712 28.4048C20.4312 28.4048 20.8913 28.3413 21.3195 28.2303C18.9718 27.7544 17.211 25.6922 17.211 23.2018V23.1383C17.8931 23.519 18.6863 23.757 19.527 23.7887C18.1469 22.8686 17.2427 21.2982 17.2427 19.5215C17.2427 18.5698 17.4965 17.6973 17.9407 16.9359C20.4629 20.045 24.2542 22.0754 28.5054 22.2976C28.4261 21.9168 28.3785 21.5203 28.3785 21.1237C28.3785 18.3001 30.6627 16 33.5022 16C34.9774 16 36.3099 16.6187 37.2458 17.618C38.4038 17.3959 39.5142 16.9676 40.4978 16.3807C40.117 17.5705 39.308 18.5698 38.2452 19.2043C39.2763 19.0933 40.2757 18.8077 41.1957 18.4112C40.4979 19.4264 39.6253 20.3305 38.626 21.0603Z" fill="black"/>
</g>
</svg>
